HIERARCHY
ROOT hip
{
  OFFSET 0 0 0
  CHANNELS 6 Xposition Yposition Zposition Zrotation Yrotation Xrotation
  JOINT abdomen
  {
    OFFSET 0 20.6881 -0.73152
    CHANNELS 3 Zrotation Xrotation Yrotation
    JOINT chest
    {
      OFFSET 0 11.7043 -0.48768
      CHANNELS 3 Zrotation Xrotation Yrotation
      JOINT neck
      {
        OFFSET 0 22.1894 -2.19456
        CHANNELS 3 Zrotation Xrotation Yrotation
        JOINT head
        {
          OFFSET -0.24384 7.07133 1.2192
          CHANNELS 3 Zrotation Xrotation Yrotation
          JOINT leftEye
          {
            OFFSET 4.14528 8.04674 8.04672
            CHANNELS 3 Zrotation Xrotation Yrotation
            End Site
            {
              OFFSET 1 0 0
            }
          }
          JOINT rightEye
          {
            OFFSET -3.6576 8.04674 8.04672
            CHANNELS 3 Zrotation Xrotation Yrotation
            End Site
            {
              OFFSET 1 0 0
            }
          }
        }
      }
      JOINT rCollar
      {
        OFFSET -2.68224 19.2634 -4.8768
        CHANNELS 3 Zrotation Xrotation Yrotation
        JOINT rShldr
        {
          OFFSET -8.77824 -1.95073 1.46304
          CHANNELS 3 Zrotation Xrotation Yrotation
          JOINT rForeArm
          {
            OFFSET -28.1742 -1.7115 0.48768
            CHANNELS 3 Zrotation Xrotation Yrotation
            JOINT rHand
            {
              OFFSET -22.5879 0.773209 7.07136
              CHANNELS 3 Zrotation Xrotation Yrotation
              JOINT rThumb1
              {
                OFFSET -1.2192 -0.487915 3.41376
                CHANNELS 3 Zrotation Xrotation Yrotation
                JOINT rThumb2
                {
                  OFFSET -3.37035 -0.52449 3.41376
                  CHANNELS 3 Zrotation Xrotation Yrotation
                  End Site
                  {
                    OFFSET -1.78271 -1.18214 1.43049
                  }
                }
              }
              JOINT rIndex1
              {
                OFFSET -7.75947 0.938293 5.60832
                CHANNELS 3 Zrotation Xrotation Yrotation
                JOINT rIndex2
                {
                  OFFSET -2.54057 -0.884171 1.56538
                  CHANNELS 3 Zrotation Xrotation Yrotation
                  End Site
                  {
                    OFFSET -1.62519 -0.234802 1.16502
                  }
                }
              }
              JOINT rMid1
              {
                OFFSET -8.24714 1.18213 3.41376
                CHANNELS 3 Zrotation Xrotation Yrotation
                JOINT rMid2
                {
                  OFFSET -3.10165 -0.590103 1.0647
                  CHANNELS 3 Zrotation Xrotation Yrotation
                  End Site
                  {
                    OFFSET -2.48547 -0.328903 0.83742
                  }
                }
              }
              JOINT rRing1
              {
                OFFSET -8.82822 0.546677 1.51678
                CHANNELS 3 Zrotation Xrotation Yrotation
                JOINT rRing2
                {
                  OFFSET -2.60934 -0.819778 -0.0198488
                  CHANNELS 3 Zrotation Xrotation Yrotation
                  End Site
                  {
                    OFFSET -2.33842 -0.294052 0.168128
                  }
                }
              }
              JOINT rPinky1
              {
                OFFSET -8.27202 -0.0477905 -0.4584
                CHANNELS 3 Zrotation Xrotation Yrotation
                JOINT rPinky2
                {
                  OFFSET -1.82734 -0.647385 -0.700984
                  CHANNELS 3 Zrotation Xrotation Yrotation
                  End Site
                  {
                    OFFSET -1.69225 -0.51767 -0.607171
                  }
                }
              }
            }
          }
        }
      }
      JOINT lCollar
      {
        OFFSET 2.68224 19.2634 -4.8768
        CHANNELS 3 Zrotation Xrotation Yrotation
        JOINT lShldr
        {
          OFFSET 8.77824 -1.95073 1.46304
          CHANNELS 3 Zrotation Xrotation Yrotation
          JOINT lForeArm
          {
            OFFSET 28.1742 -1.7115 0.48768
            CHANNELS 3 Zrotation Xrotation Yrotation
            JOINT lHand
            {
              OFFSET 22.5879 0.773209 7.07136
              CHANNELS 3 Zrotation Xrotation Yrotation
              JOINT lThumb1
              {
                OFFSET 1.2192 -0.487915 3.41376
                CHANNELS 3 Zrotation Xrotation Yrotation
                JOINT lThumb2
                {
                  OFFSET 3.37035 -0.52449 3.41376
                  CHANNELS 3 Zrotation Xrotation Yrotation
                  End Site
                  {
                    OFFSET 1.78271 -1.18214 1.43049
                  }
                }
              }
              JOINT lIndex1
              {
                OFFSET 7.75947 0.938293 5.60832
                CHANNELS 3 Zrotation Xrotation Yrotation
                JOINT lIndex2
                {
                  OFFSET 2.54057 -0.884171 1.56538
                  CHANNELS 3 Zrotation Xrotation Yrotation
                  End Site
                  {
                    OFFSET 1.62519 -0.234802 1.16502
                  }
                }
              }
              JOINT lMid1
              {
                OFFSET 8.24714 1.18213 3.41376
                CHANNELS 3 Zrotation Xrotation Yrotation
                JOINT lMid2
                {
                  OFFSET 3.10165 -0.590103 1.0647
                  CHANNELS 3 Zrotation Xrotation Yrotation
                  End Site
                  {
                    OFFSET 2.48547 -0.328903 0.83742
                  }
                }
              }
              JOINT lRing1
              {
                OFFSET 8.82822 0.546677 1.51678
                CHANNELS 3 Zrotation Xrotation Yrotation
                JOINT lRing2
                {
                  OFFSET 2.60934 -0.819778 -0.0198488
                  CHANNELS 3 Zrotation Xrotation Yrotation
                  End Site
                  {
                    OFFSET 2.33842 -0.294052 0.168128
                  }
                }
              }
              JOINT lPinky1
              {
                OFFSET 8.27202 -0.0477905 -0.4584
                CHANNELS 3 Zrotation Xrotation Yrotation
                JOINT lPinky2
                {
                  OFFSET 1.82734 -0.647385 -0.700984
                  CHANNELS 3 Zrotation Xrotation Yrotation
                  End Site
                  {
                    OFFSET 1.69225 -0.51767 -0.607171
                  }
                }
              }
            }
          }
        }
      }
    }
  }
  JOINT rButtock
  {
    OFFSET -8.77824 4.35084 1.2192
    CHANNELS 3 Zrotation Xrotation Yrotation
    JOINT rThigh
    {
      OFFSET 0 -1.70687 -2.19456
      CHANNELS 3 Zrotation Xrotation Yrotation
      JOINT rShin
      {
        OFFSET 0 -36.8199 0.73152
        CHANNELS 3 Zrotation Xrotation Yrotation
        JOINT rFoot
        {
          OFFSET 0.73152 -45.1104 -5.12064
          CHANNELS 3 Zrotation Xrotation Yrotation
          End Site
          {
            OFFSET -1.1221 -3.69964 12.103
          }
        }
      }
    }
  }
  JOINT lButtock
  {
    OFFSET 8.77824 4.35084 1.2192
    CHANNELS 3 Zrotation Xrotation Yrotation
    JOINT lThigh
    {
      OFFSET 0 -1.70687 -2.19456
      CHANNELS 3 Zrotation Xrotation Yrotation
      JOINT lShin
      {
        OFFSET 0 -36.8199 0.73152
        CHANNELS 3 Zrotation Xrotation Yrotation
        JOINT lFoot
        {
          OFFSET -0.73152 -45.1104 -5.12064
          CHANNELS 3 Zrotation Xrotation Yrotation
          End Site
          {
            OFFSET 1.1221 -3.69964 12.103
          }
        }
      }
    }
  }
}
MOTION
Frames:	4
Frame Time:	0.03333
27.68039060756564 58.919864892959595 55.99422138184309 -4.933262076166266 -26.13595450058016 5.592464977305353 -4.501139486154831 19.11545576972334 5.299367472754943 0.5110743474531989 -13.555157568314163 1.545100741326249 -4.372683264660755 11.92999345625873 3.55872748683622 9.463133179951578 -29.360544864351123 11.00723233806907 0.07926687995851028 -0.18408026823845497 -0.36930339254369704 0.0327993154463417 -0.5217943827163869 0.4535772814115027 0.5885704208281041 0.21463197120018646 -0.26166622797005457 -7.275444933137651 34.35214273244482 87.46115288809273 -25.575974611287492 -21.407798736321144 52.460722750576146 -0.7606132277063521 17.344736057586704 1.9743630829010352 -0.602679830745205 0.39942668789799535 -0.509343214663718 -0.4632864486775287 0.2786122741464 -0.1936379974039771 0.16677550372855166 -0.37561675517303666 0.08238270020007903 8.226565850534852 6.0461910287747145 0.5161609173941544 -0.0546087497964271 -0.17667484907428022 0.14815736854644893 3.751150564341581 0.9110205566149384 -0.5100089446643827 -0.06466433571941971 -0.15260019315813067 0.27453582515066594 10.302357669497399 1.9751214473423182 -0.315629498209489 -0.6564282968713279 0.49728142075459286 -0.47638290952420503 2.4973024294378985 -0.8931678295067003 -0.3506092448266515 -0.05551663134750989 -0.2889490717641267 -0.2849863881067557 8.875521760371626 0.7563708798189808 -101.83396093968558 24.894625675538286 -44.14941730432989 -94.7291093725791 -1.00205353131628 7.980079691314724 -1.7581148114667886 0.24373700807919751 -0.17648403066434298 0.2875866091072678 -0.2618491756541904 -0.25435306972052785 -0.2084599347897279 0.029165334642777572 0.33267370167472693 -0.18963251834258776 -7.6940279537800045 5.2626637437025865 -0.03125201079506936 0.8688885880805677 0.2578508469470884 -0.09001637041249387 -3.1006967086424573 1.5929767388700418 -0.05394249952744674 0.11127664154505437 0.18767993801361038 -0.36272890858073664 -10.175656806620017 0.7399795463888609 0.010847407619038064 -0.3777820852224894 0.19572376642176975 -0.12308929363203276 -2.533412999249521 -0.6884722894450014 0.2564515653017349 -0.7911876090305621 0.8158796500146573 1.0103366297888012 -9.708489796637716 -48.43885806536793 -23.11559191563445 -1.1614273511403592 71.08675107003847 2.134303488261108 -5.705595108075567 -15.52331243614648 -20.499827539005498 0.09615401575326435 0.07748055870692716 0.22695416607141838 35.862748350419864 -63.521455960413924 38.67524949590186 7.593166550306426 78.99003126055192 -7.9919684893387775 1.0082501137190683 2.2862790392753 6.630930353808677
29.17043436318636 58.37939977645874 59.28750913590193 -3.306680059527821 -30.35675527555416 5.732397624152343 -5.137082178075439 18.516743585194824 6.725942980918608 -0.10921739287114843 -13.372381706124623 1.5493884992994302 -4.190342400143979 12.426175109835246 4.653298598502967 9.455435556756974 -28.54247090934389 12.20669295727241 0.046307695396907975 -0.045871176939835404 -0.5646134255925785 0.2368439598244795 -0.2516941251014095 0.7152559157798544 0.28821818816208244 0.5118700644915054 -0.14276544112482634 -12.723910739718917 34.93850081231208 91.50439265030849 -26.14123594435587 -23.79462883234961 56.56113461123951 -0.7210173404273188 18.72291284529166 1.7486432600786852 -0.4411308624747412 0.5615676948312818 -0.7226568526323863 -0.547082731231536 0.33182670485679244 -0.18402066416577603 0.3836980428999254 -0.17337869583036727 -0.13313730231391488 8.179425592430716 6.035577768578161 0.3717353400946183 0.3588759615173354 -0.042396958529826105 0.47417371685367615 3.7849629889409058 0.8420101395101278 -0.4506278136288208 -0.07620121891865882 -0.09107934528250355 0.15519662553808755 10.247914231623227 1.2529200829502072 -0.20358771539483453 -0.7041216935765287 0.3870001191985092 -0.3553719143905602 2.4063076611072267 -0.7587597384811927 -0.7055203882525003 -0.2805832106087718 -0.14850053219138917 -0.2142320316077705 7.95332669410943 4.328642204892513 -97.27781495193688 25.1968273953655 -44.394306906831524 -95.51657554236822 -0.21887973521412615 20.354909707838043 -3.2801648382830084 0.3017604255738079 -0.10160210547255444 0.1453391684618782 -0.19648533251422617 -0.5236379468229085 -0.31649218311817334 -0.13971312029819755 0.261898214277997 -0.45194721407739685 -7.7702596951065175 4.984996063374058 -0.3711537067981094 1.0322610034160133 0.2650039759987958 0.31419566541188876 -3.273579041819235 1.413316083272261 -0.21854365522240715 0.2422897016662424 0.22592142012457128 -0.4921428773429219 -10.009159846543554 0.6710350832982233 -0.04452578975590156 -0.33874328524763525 0.26280604246822686 -0.042647701177559616 -2.5080463170023286 -0.6954877474962508 0.362288548142256 -0.49685085203261764 0.7017218959394741 1.2283624579545436 -9.386192806498677 -47.196149542113716 -22.568017357421823 -0.031510117240501796 70.60794797903141 0.9260889144193386 -4.6656548375983435 -15.9501941366304 -19.313100953736 0.3007553205487582 0.17130569339662874 0.36335870004697945 37.609244796665045 -61.3468056909519 39.83128291858861 3.5593033571606165 72.91360127677427 -3.618224837809378 0.10203982454881706 7.201863305209104 6.532871462328919
30.380957666784525 59.160733222961426 61.72558031976223 -4.2335518843807725 -33.78426714447162 4.671563378117227 -6.650339190108914 18.03065438989065 8.7255299524245 -0.7538766868331626 -13.478993275105704 1.7753749129428225 -4.454541374316065 12.332577612543975 5.56332482898514 9.749762068471163 -27.56133472563907 12.791467287025867 -0.11321734908426359 0.06544180334603757 -0.4644445392678161 0.26864414666129527 0.06153280070667464 0.7432447503380972 -0.09788546870786258 0.5478431767460816 0.06250692975662127 -15.704712015218263 36.855120195309354 93.40561678691657 -27.235044636156513 -27.142176261559143 62.46107592195862 -0.6634640320466757 19.25580761943064 1.5392019124825909 -0.4174848009290099 0.4698115738515652 -0.7141292547319196 -0.5371995542242333 0.20898447197364373 -0.220825992282036 0.3513346856217009 0.029184224384700887 -0.2694433321550396 8.083062722299237 5.832498315307111 0.4538661237082002 0.6390013360083048 0.1458161611258684 0.654187407854182 3.9388821556607896 0.8608798177527575 -0.32012573703491437 -0.10794244201303034 0.028384185117310255 -0.024640974647878813 10.309238231312541 0.8298350605103156 -0.287110897103747 -0.5135460755199502 0.41644314371973007 -0.49713377127464425 2.4988597125686614 -0.6778094036552594 -0.9839544905110982 -0.33497937076728224 -0.046707394865485946 -0.20663291254760238 3.876379094566003 9.850498820992389 -90.81724146885936 25.84976786680933 -44.59854663848783 -96.20367891249316 1.1591647442560866 29.926593376721343 -4.807746677996703 0.13731177519640916 0.09218327460710686 -0.15494006655738893 -0.06816614169037351 -0.6245909175200473 -0.12910242142258274 -0.3505478264849743 0.09271197393754815 -0.4503792587760558 -7.848112752587261 5.102062090653492 -0.4633480271017646 1.0945307708619618 -0.11638034031978774 0.44077958798016154 -3.1013144138755204 1.1990144157514682 -0.32505147736525714 0.14493026424617658 0.18527645847770635 -0.34041019825066215 -10.376833198433571 0.5576507414248382 0.19386339364658753 -0.12085639540260716 0.6006483297148023 -0.013922807014542085 -2.3676033269582915 -0.7476294116201281 0.28590995774858835 -0.2936013910842574 0.3349836929963664 0.9257342781910268 -11.315046765846741 -47.05310830542073 -23.556379881268516 -0.9057535202695065 71.48079834363485 2.182673607302669 -4.845979088762673 -17.17736568707013 -18.566522003865877 0.5510195348752549 0.0852577962940445 0.5390291377872976 38.65835160789525 -59.0604545078035 38.772555785912445 1.5528823545033035 66.16359852761747 -1.087926191377971 -0.5274993515814929 12.127863182740354 7.019943777986753
31.4744982868433 59.43326950073242 63.396997191011906 -2.9942906856667095 -38.362775171562944 3.822504269940235 -7.856192866375387 17.10564016304853 10.587323406954086 -1.5198459034267153 -13.384841678718018 1.8708082370169448 -4.04366067262337 12.171866676468161 6.6759182485506114 9.289625884465744 -25.76097882269375 13.84874641959799 -0.17457272495507656 0.0782868278538928 -0.40338102058188896 -0.02776301142880933 0.11186233026638297 0.7787226738778475 -0.31367793173671654 0.38232613537210486 0.049189018035395125 -19.161484414540055 40.84106150057789 95.5056472396962 -27.811925828550375 -30.01014708083811 67.7961776637906 -0.8656427541209306 17.780881202132456 1.30097089064807 -0.23073403544678575 0.304311821393925 -0.9675826337922834 -0.5488330739280575 0.12109381117733121 -0.07564861392612247 0.19867163337886495 0.04105295872806742 -0.3541369841721102 7.978069908151448 5.752929172797401 0.5375774024235525 0.3508740747395482 0.23167985656427384 0.5259438827197283 3.7834005831682656 1.0516722943154837 -0.3750763164549594 -0.3011803397420328 0.01972158425903002 -0.19104017764184508 10.317584722478296 0.7047864630818412 -0.20945655543916797 -0.27473064562457 0.30624444476392126 -0.4951060588647967 2.371417347279509 -0.7995040580361402 -0.9306521211151417 -0.19601885193825547 -0.1205957943373021 -0.1999675550521691 -0.6577538338179864 14.761770249352153 -82.86743402971979 25.983139263184878 -44.939598474314074 -96.31117242965082 1.8863744515788154 37.003871470148475 -6.1715514670274825 0.01962494775444492 0.033088424547303645 -0.28387290718948494 0.04782541145525241 -0.6287130434058558 0.09776796810979721 -0.3339889933376304 0.10897753583740462 -0.46715783191560367 -7.642954360487589 5.2827590140144105 -0.17089640231474365 0.9835766956726318 -0.21142242262051517 0.30110443392879577 -2.924655412974549 0.9967624825870472 -0.3711023202967756 -0.00044689714295981865 0.1674983298418094 -0.06959885391006301 -10.537311054303961 0.7252437334196757 0.09625294677452376 -0.13078834422945196 0.6841883734532282 0.06855706329865095 -2.292272743715398 -0.8880881964766206 0.15511332924672513 -0.19704055218855418 0.035916869915629396 0.7462625200124793 -13.286282048994734 -45.933483206104725 -24.30443415199936 -0.5264730089369927 71.82885795354953 1.8608777822939808 -5.299123720378938 -18.08823971478303 -18.1040533102589 0.5905398631865949 0.04401818130256532 0.6845702237165142 39.02465465308303 -56.19921313240429 37.722502993482195 0.14642415468370532 59.951527817112535 0.2510423222833493 -0.6915705272855426 17.16887405438451 8.758681129334803
